{"title":"Genesis.Of.The.Daleks.1975.DVDRip.x264.Iou1","uid":11261500,"size":947862181,"categoryP":"video","categoryS":"tv_shows","magnet":"?xt=urn:btih:3fc3190814c3ce77c767c9adbe69f0c665e5fa77&amp;dn=Genesis.Of.The.Daleks.1975.DVDRip.x264.Iou1&amp;tr=udp%3A%2F%2Ftracker.openbittorrent.com%3A80&amp;tr=udp%3A%2F%2Fopen.demonii.com%3A1337&amp;tr=udp%3A%2F%2Ftracker.coppersurfer.tk%3A6969&amp;tr=udp%3A%2F%2Fexodus.desync.com%3A6969","seeders":0,"leechers":1,"uploader":"jaybee211","files":-1,"time":1413975215,"description":"Genre                                    : Adventure/Drama/Sci-Fi\nFormat                                   : MPEG-4\nFormat profile                           : Base Media / Version 2\nCodec ID                                 : mp42\nFile size                                : 155 MiB\nDuration                                 : 24mn 33s\nOverall bit rate mode                    : Variable\nOverall bit rate                         : 884 Kbps\n\nVideo\nID                                       : 2\nFormat                                   : AVC\nFormat/Info                              : Advanced Video Codec\nFormat profile                           : &lt;a class=&quot;__cf_email__&quot; href=&quot;/cdn-cgi/l/email-protection&quot; data-cfemail=&quot;0d45646a654d413e233c&quot;&gt;[email&amp;#160;protected]&lt;/a&gt;&lt;script cf-hash='f9e31' type=&quot;text/javascript&quot;&gt;\n/* &lt;![CDATA[ */!function(){try{var t=&quot;currentScript&quot;in document?document.currentScript:function(){for(var t=document.getElementsByTagName(&quot;script&quot;),e=t.length;e--;)if(t[e].getAttribute(&quot;cf-hash&quot;))return t[e]}();if(t&amp;&amp;t.previousSibling){var e,r,n,i,c=t.previousSibling,a=c.getAttribute(&quot;data-cfemail&quot;);if(a){for(e=&quot;&quot;,r=parseInt(a.substr(0,2),16),n=2;a.length-n;n+=2)i=parseInt(a.substr(n,2),16)^r,e+=String.fromCharCode(i);e=document.createTextNode(e),c.parentNode.replaceChild(e,c)}}}catch(u){}}();/* ]]&gt; */&lt;/script&gt;\nFormat settings, CABAC                   : Yes\nFormat settings, ReFrames                : 5 frames\nCodec ID                                 : avc1\nCodec ID/Info                            : Advanced Video Coding\nDuration                                 : 24mn 33s\nBit rate mode                            : Variable\nBit rate                                 : 783 Kbps\nMaximum bit rate                         : 8 000 Kbps\nWidth                                    : 720 pixels\nHeight                                   : 576 pixels\nDisplay aspect ratio                     : 4:3\nFrame rate mode                          : Constant\nFrame rate                               : 25.000 fps\nStandard                                 : PAL\nColor space                              : YUV\nChroma subsampling                       : 4:2:0\nBit depth                                : 8 bits\nScan type                                : Progressive\nBits/(Pixel*Frame)                       : 0.076\nStream size                              : 138 MiB (89%)\n\nAudio\nID                                       : 1\nFormat                                   : AAC\nFormat/Info                              : Advanced Audio Codec\nFormat profile                           : LC\nCodec ID                                 : 40\nDuration                                 : 24mn 33s\nBit rate mode                            : Variable\nBit rate                                 : 96.0 Kbps\nMaximum bit rate                         : 576 Kbps\nChannel(s)                               : 2 channels\nChannel positions                        : Front: L R\nSampling rate                            : 48.0 KHz\nCompression mode                         : Lossy\nStream size                              : 16.9 MiB (11%)\nSubtitles                                : None\n\nScreens. &lt;a href=&quot; http://bayimg.com/FaCKOAAGD&quot; rel=&quot;nofollow&quot; target=&quot;_NEW&quot;&gt; http://bayimg.com/FaCKOAAGD&lt;/a&gt;\n\n         &lt;a href=&quot; http://bayimg.com/GAckcAaGD&quot; rel=&quot;nofollow&quot; target=&quot;_NEW&quot;&gt; http://bayimg.com/GAckcAaGD&lt;/a&gt;\n\n         &lt;a href=&quot; http://bayimg.com/GackEaAgd&quot; rel=&quot;nofollow&quot; target=&quot;_NEW&quot;&gt; http://bayimg.com/GackEaAgd&lt;/a&gt;\n\n         &lt;a href=&quot; http://bayimg.com/gAckgaAgd&quot; rel=&quot;nofollow&quot; target=&quot;_NEW&quot;&gt; http://bayimg.com/gAckgaAgd&lt;/a&gt;\n\n         &lt;a href=&quot; http://bayimg.com/gAcKjaagd&quot; rel=&quot;nofollow&quot; target=&quot;_NEW&quot;&gt; http://bayimg.com/gAcKjaagd&lt;/a&gt;\n\n         &lt;a href=&quot; http://bayimg.com/gACKlAAGD&quot; rel=&quot;nofollow&quot; target=&quot;_NEW&quot;&gt; http://bayimg.com/gACKlAAGD&lt;/a&gt;\n\nIMDB. &lt;a href=&quot; http://www.imdb.com/title/tt0562850/&quot; rel=&quot;nofollow&quot; target=&quot;_NEW&quot;&gt; http://www.imdb.com/title/tt0562850/&lt;/a&gt;\n\nStoryline.\nThe Doctor and his companions are sent to the planet Skaro by the Time Lords to prevent the creation of the Daleks.\n\nEnjoy","torrent":{"xt":"urn:btih:3fc3190814c3ce77c767c9adbe69f0c665e5fa77","amp;dn":"Genesis.Of.The.Daleks.1975.DVDRip.x264.Iou1","amp;tr":["udp%3A%2F%2Ftracker.openbittorrent.com%3A80","udp%3A%2F%2Fopen.demonii.com%3A1337","udp%3A%2F%2Ftracker.coppersurfer.tk%3A6969","udp%3A%2F%2Fexodus.desync.com%3A6969"],"infoHash":"3fc3190814c3ce77c767c9adbe69f0c665e5fa77","infoHashBuffer":{"type":"Buffer","data":[63,195,25,8,20,195,206,119,199,103,201,173,190,105,240,198,101,229,250,119]},"announce":[],"urlList":[]}}